<svg width="100" height="18" viewBox="0 0 100 18" fill="none" xmlns="http://www.w3.org/2000/svg">
<path d="M6.60736 1.94855L7.81372 5.47635L5.67214 11.6548C6.51868 11.7929 7.37531 11.8596 8.23291 11.854C8.82254 11.8552 9.41189 11.8242 9.99819 11.7614L10.7342 14.0551C9.94009 14.1354 9.07405 14.1935 8.24398 14.1935C7.14082 14.1907 6.03931 14.1113 4.94722 13.9555L3.72563 17.5359H0L5.82709 1.94855H6.60736Z" fill="#FFA500" fill-opacity="0.6"/>
<path d="M93.9958 5.47635C97.7477 5.47635 99.9999 7.22641 99.9999 11.6424C99.9999 12.1958 99.9847 12.7962 99.9709 12.875H91.3326C91.3174 14.6528 92.8295 15.4289 95.1883 15.4289C96.7765 15.4289 98.0423 15.0581 98.8959 14.8063L99.0343 17.1139C98.3273 17.3782 96.7972 17.7628 94.7082 17.7628C90.5676 17.7683 87.7412 16.2437 87.7412 11.6286C87.7412 8.64583 88.9185 6.65643 91.3022 5.85956V10.7016H96.4832C96.497 8.55314 95.6739 7.62485 93.8934 7.62485C93.0633 7.62485 92.4504 7.82406 92.0243 8.24878V5.66173C92.6736 5.53418 93.3341 5.47206 93.9958 5.47635ZM39.3675 0.661942V11.6424C39.3675 13.9943 39.8531 15.4344 41.9573 15.4344C44.0615 15.4344 44.709 13.9887 44.709 11.6424C44.709 9.29605 44.0615 7.84897 41.9573 7.84897C41.0746 7.84897 40.4853 8.10075 40.0882 8.56559V6.23171C40.7647 5.80699 41.6778 5.52892 42.9285 5.52892C46.1076 5.52892 48.1814 7.34539 48.1814 11.6286C48.1814 15.9172 46.1063 17.7157 42.8994 17.7157C40.9128 17.7157 39.7645 17.024 39.1171 16.1372L38.9552 17.5303H35.9393V2.94325H34.4078V0.661942H39.3675ZM64.9848 5.56627C67.0005 5.56627 68.1488 6.26907 68.781 7.15724L68.9581 5.6977H71.9602L71.9643 17.5303H68.5347V11.6424C68.5347 9.29052 68.0491 7.84897 65.9449 7.84897C63.8407 7.84897 63.1932 9.29467 63.1932 11.6424C63.1932 13.9901 63.8407 15.4289 65.9449 15.4289C66.8289 15.4289 67.4169 15.1771 67.814 14.7136V17.0212C67.1375 17.4446 66.2105 17.713 64.9737 17.713C61.7669 17.713 59.7166 15.9228 59.7166 11.6396C59.7166 7.35646 61.7628 5.56627 64.9848 5.56627ZM10.802 1.94855L16.6291 17.5303H12.7291L7.41669 1.94855H10.802ZM21.9969 5.70047V15.2463H23.3803V17.5303H18.5728V7.98454H17.0427V5.70047H21.9969ZM33.1779 5.4888C33.5068 5.48576 33.835 5.51688 34.1574 5.58149L34.1131 8.28752C33.8364 8.25985 33.4657 8.23356 33.1447 8.23356C32.1293 8.23356 31.4085 8.4729 30.9077 8.84367C29.8004 9.66277 29.7609 11.1842 29.7595 12.0163L29.7594 17.5303H26.3437V7.98454H24.8122V5.70047H29.3596L29.5809 7.59718C30.1993 6.39081 31.3462 5.4888 33.1779 5.4888ZM57.9832 5.4888C58.3144 5.48534 58.6449 5.51633 58.9696 5.58149L58.9253 8.28752C58.6486 8.25985 58.2778 8.23356 57.9569 8.23356C56.9414 8.23356 56.2207 8.4729 55.7198 8.84367C54.6139 9.66277 54.5744 11.1842 54.573 12.0163L54.573 17.5303H51.1558V7.98454H49.6244V5.70047H54.1718L54.3931 7.59718C55.0115 6.39081 56.1584 5.4888 57.9832 5.4888ZM78.6312 0.661942V17.5303H75.203V2.94325H73.6729V0.661942H78.6312ZM86.8904 5.69493L82.693 11.2177L87.4174 17.5303H83.3999L78.8816 11.2785L83.0167 5.69493H86.8904ZM20.132 0.210938C21.1917 0.210938 21.972 0.902662 21.972 1.85586C21.972 2.80906 21.1917 3.4994 20.132 3.4994C19.0723 3.4994 18.2934 2.81044 18.2934 1.85586H18.2892C18.2934 0.902662 19.0723 0.210938 20.132 0.210938Z" fill="#FFA500"/>
</svg>
