<svg width="100" height="26" viewBox="0 0 100 26" fill="none" xmlns="http://www.w3.org/2000/svg">
<path d="M3.25103 0.60791H21.4403C23.2305 0.60791 24.6914 2.06161 24.6914 3.85894V22.0493C24.6914 23.8394 23.2377 25.2993 21.4403 25.2993H3.25103C1.46091 25.2993 0 23.8466 0 22.0493V3.85071C0 2.06161 1.45267 0.60791 3.25103 0.60791Z" fill="#5468FF"/>
<path d="M14.9187 6.12003V5.27332C14.9183 4.68162 14.4384 4.20222 13.8467 4.20233H11.3477C10.756 4.20222 10.2762 4.68162 10.2757 5.27332V6.14266C10.2757 6.23937 10.3652 6.30727 10.463 6.28464C11.1699 6.08053 11.9021 5.97731 12.6379 5.97805C13.3508 5.97805 14.0566 6.07476 14.7387 6.262C14.8292 6.28464 14.9187 6.21776 14.9187 6.12003ZM8.06996 7.22805L7.64301 6.8011C7.4421 6.60005 7.16952 6.48708 6.88529 6.48708C6.60106 6.48708 6.32848 6.60005 6.12757 6.8011L5.61729 7.31036C5.4158 7.51062 5.30251 7.78296 5.30251 8.06704C5.30251 8.35112 5.4158 8.62347 5.61729 8.82373L6.03704 9.24348C6.10494 9.31036 6.20268 9.29492 6.26235 9.22805C6.51 8.88794 6.78344 8.56738 7.08025 8.2692C7.37956 7.96887 7.70301 7.6936 8.04733 7.44616C8.12223 7.40089 8.12963 7.29595 8.06996 7.22805ZM12.6305 9.91632V13.5789C12.6305 13.6838 12.7436 13.7589 12.8403 13.7064L16.0965 12.0213C16.1706 11.9842 16.1932 11.8937 16.1562 11.8196C15.4813 10.6355 14.2282 9.82682 12.7807 9.77435C12.7056 9.77435 12.6305 9.83402 12.6305 9.91632ZM12.6305 18.7394C9.91543 18.7394 7.70967 16.5367 7.70967 13.8258C7.70967 11.1149 9.91543 8.91324 12.6305 8.91324C15.3465 8.91324 17.5514 11.1149 17.5514 13.8258C17.5514 16.5367 15.3539 18.7394 12.6305 18.7394ZM12.6305 6.84636C8.77449 6.84636 5.64692 9.96982 5.64692 13.8258C5.64692 17.6828 8.77449 20.799 12.6305 20.799C16.4864 20.799 19.614 17.6756 19.614 13.8186C19.614 9.96159 16.4936 6.84636 12.6305 6.84636Z" fill="white"/>
<path d="M49.221 20.192C44.4134 20.2145 44.4134 16.3122 44.4134 15.6908L44.4051 1.0725L47.3381 0.607483V15.1363C47.3381 15.4892 47.3381 17.7207 49.2208 17.7279V20.1918L49.221 20.192ZM37.3321 17.803C38.2321 17.803 38.9 17.7505 39.365 17.661V14.6805C39.1328 14.6188 38.8972 14.571 38.6593 14.5375C38.3217 14.4875 37.9808 14.4624 37.6395 14.4624C37.3165 14.4624 36.9862 14.4851 36.657 14.5375C36.3267 14.5828 36.0263 14.6723 35.764 14.7999C35.5016 14.9274 35.2835 15.1075 35.1261 15.339C34.9615 15.5715 34.8864 15.7062 34.8864 16.0581C34.8864 16.7464 35.1261 17.1445 35.5613 17.4058C35.9965 17.6682 36.5891 17.803 37.3321 17.803ZM37.077 7.16818C38.044 7.16818 38.8617 7.28855 39.5222 7.52826C40.1819 7.76798 40.7148 8.1044 41.1045 8.53135C41.5027 8.96551 41.7722 9.54267 41.937 10.1569C42.1099 10.7711 42.1922 11.4449 42.1922 12.1857V19.7207C41.7426 19.8174 41.0593 19.9295 40.1449 20.0643C39.23 20.199 38.2025 20.2669 37.0613 20.2669C36.3041 20.2669 35.6066 20.1918 34.9842 20.0499C34.3535 19.9079 33.8216 19.6754 33.371 19.3534C32.9286 19.0314 32.5839 18.6188 32.3288 18.1106C32.0809 17.6003 31.9533 16.8822 31.9533 16.1332C31.9533 15.4141 32.0953 14.9573 32.3741 14.4624C32.658 13.9686 33.0407 13.5643 33.5212 13.2495C34.0088 12.9346 34.5634 12.7104 35.2012 12.5756C35.8391 12.4408 36.5068 12.3729 37.1961 12.3729C37.5191 12.3729 37.8566 12.3955 38.2167 12.4326C38.5695 12.4707 38.9523 12.5386 39.3576 12.6353V12.1558C39.3576 11.8194 39.3195 11.4974 39.2372 11.198C39.1581 10.903 39.0144 10.6292 38.8165 10.3966C38.6138 10.1641 38.3525 9.98403 38.0222 9.85748C37.692 9.72991 37.2712 9.63217 36.7691 9.63217C36.0942 9.63217 35.479 9.71448 34.9163 9.81222C34.3535 9.90892 33.8885 10.0221 33.5356 10.1486L33.1837 7.74534C33.551 7.61777 34.0984 7.4902 34.8041 7.36366C35.5088 7.22785 36.2671 7.16818 37.0768 7.16818H37.077ZM95.0008 17.7207C95.901 17.7207 96.5677 17.6682 97.0327 17.5776V14.5982C96.8681 14.553 96.6356 14.5005 96.328 14.4552C95.9901 14.4052 95.649 14.3801 95.3074 14.3801C94.9854 14.3801 94.6551 14.4028 94.3249 14.4552C93.9957 14.5005 93.6953 14.59 93.4329 14.7176C93.1695 14.8451 92.9525 15.0252 92.7951 15.2567C92.6294 15.4892 92.5554 15.6239 92.5554 15.9758C92.5554 16.6641 92.7951 17.0622 93.2302 17.3235C93.6726 17.5931 94.258 17.7207 95.0008 17.7207ZM94.7529 7.09411C95.72 7.09411 96.5377 7.21345 97.1981 7.45316C97.8576 7.69287 98.3905 8.02929 98.7805 8.45625C99.1704 8.8832 99.4481 9.46757 99.6128 10.0818C99.7856 10.696 99.8679 11.3698 99.8679 12.1116V19.6455C99.4183 19.7423 98.7352 19.8544 97.8206 19.9902C96.906 20.125 95.8782 20.1918 94.7372 20.1918C93.98 20.1918 93.2825 20.1167 92.6603 19.9748C92.0296 19.8328 91.4977 19.6003 91.0471 19.2783C90.6047 18.9562 90.2601 18.5437 90.0049 18.0355C89.757 17.5262 89.6294 16.8071 89.6294 16.0581C89.6294 15.339 89.7724 14.8822 90.0502 14.3873C90.3342 13.8935 90.7169 13.4892 91.1973 13.1744C91.685 12.8606 92.2395 12.6353 92.8774 12.5005C93.5152 12.3657 94.1829 12.2988 94.8732 12.2988C95.1953 12.2988 95.5327 12.3215 95.8928 12.3585C96.2529 12.3955 96.6284 12.4634 97.0327 12.5612V12.0818C97.0327 11.7443 96.9957 11.4223 96.9134 11.1229C96.8345 10.8278 96.6907 10.554 96.4926 10.3215C96.2899 10.089 96.0286 9.90892 95.6984 9.78238C95.3679 9.65481 94.9473 9.5581 94.4453 9.5581C93.7704 9.5581 93.1551 9.6404 92.5924 9.73711C92.0296 9.83485 91.5646 9.94699 91.2117 10.0746L90.8599 7.67024C91.2272 7.54267 91.7745 7.41612 92.4802 7.28855C93.185 7.16098 93.9422 7.09411 94.7529 7.09411ZM85.9463 5.7011C86.9286 5.7011 87.7323 4.90687 87.7323 3.92538C87.7323 2.94493 86.9368 2.15069 85.9463 2.15069C84.9566 2.15069 84.1613 2.94493 84.1613 3.92538C84.1613 4.90687 84.9638 5.7011 85.9463 5.7011ZM87.4237 20.1918H84.4759V7.54987L87.4235 7.08588V20.1918H87.4237ZM82.2558 20.192C77.4482 20.2145 77.4481 16.3122 77.4481 15.6908L77.4399 1.0725L80.373 0.607483V15.1363C80.373 15.4892 80.373 17.7207 82.2558 17.7279V20.192ZM72.7218 13.7217C72.7218 12.4552 72.444 11.3997 71.9041 10.6661C71.364 9.92435 70.6068 9.5581 69.6387 9.5581C68.6716 9.5581 67.9132 9.92435 67.3741 10.6661C66.834 11.4069 66.5708 12.4552 66.5708 13.7217C66.5708 15.0025 66.8414 15.8626 67.3815 16.6044C67.9216 17.3534 68.6788 17.7207 69.6469 17.7207C70.614 17.7207 71.3722 17.3462 71.9123 16.6044C72.4523 15.8554 72.7218 15.0025 72.7218 13.7217ZM75.7218 13.7145C75.7218 14.7032 75.5798 15.4511 75.2868 16.268C74.9946 17.0838 74.5821 17.7803 74.0502 18.3575C73.5173 18.9336 72.8794 19.3832 72.1292 19.698C71.3794 20.0118 70.2239 20.1918 69.6467 20.1918C69.0685 20.1846 67.9214 20.02 67.1786 19.698C66.4358 19.376 65.7979 18.9336 65.266 18.3575C64.7331 17.7803 64.3208 17.0838 64.0204 16.268C63.7208 15.4511 63.5708 14.7032 63.5708 13.7145C63.5708 12.7258 63.7054 11.7741 64.0058 10.9655C64.3062 10.1569 64.7259 9.46756 65.266 8.89143C65.8062 8.31427 66.4512 7.87189 67.1858 7.5581C67.9286 7.24328 68.7465 7.09411 69.6313 7.09411C70.5171 7.09411 71.334 7.25049 72.084 7.5581C72.835 7.87189 73.4802 8.31427 74.0049 8.89143C74.5366 9.46756 74.9494 10.1569 75.2498 10.9655C75.5646 11.7741 75.722 12.7258 75.722 13.7145H75.7218ZM53.6469 13.7145C53.6469 14.9418 53.9165 16.305 54.4566 16.8739C54.9967 17.4439 55.694 17.7279 56.5502 17.7279C57.0152 17.7279 57.4576 17.661 57.87 17.5334C58.2825 17.4058 58.6119 17.2556 58.8753 17.0766V9.80501C58.6654 9.75975 57.7877 9.57971 56.9391 9.5581C55.8743 9.52724 55.0646 9.96242 54.4946 10.6579C53.9317 11.3554 53.6469 12.5756 53.6469 13.7145ZM61.8002 19.4953C61.8002 21.4953 61.2899 22.9552 60.2619 23.8842C59.2352 24.8122 57.6673 25.2772 55.5521 25.2772C54.7794 25.2772 53.1745 25.127 51.8916 24.8431L52.3638 22.5211C53.4368 22.7453 54.8545 22.806 55.5973 22.806C56.7743 22.806 57.6148 22.5663 58.1169 22.0869C58.62 21.6075 58.8669 20.8966 58.8669 19.9521V19.4727C58.5747 19.6147 58.192 19.7577 57.7198 19.9079C57.2475 20.0499 56.7002 20.125 56.084 20.125C55.2743 20.125 54.5387 19.9974 53.872 19.7423C53.2043 19.4881 52.6261 19.1137 52.1539 18.6188C51.6817 18.125 51.3062 17.5036 51.0438 16.7618C50.7815 16.02 50.6457 14.6949 50.6457 13.7217C50.6457 12.8081 50.7887 11.662 51.0667 10.8976C51.3514 10.1342 51.756 9.47477 52.3041 8.92847C52.8444 8.38217 53.5047 7.96242 54.2774 7.65481C55.05 7.34822 55.9564 7.15378 56.9389 7.15378C57.8926 7.15378 58.7702 7.27312 59.6251 7.41612C60.48 7.5581 61.2074 7.70728 61.8 7.87189V19.4953H61.8002Z" fill="#5468FF"/>
</svg>
