<svg width="100" height="22" viewBox="0 0 100 22" fill="none" xmlns="http://www.w3.org/2000/svg">
<path d="M0.0500031 13.7628C0.0500031 12.6334 0.239065 11.5797 0.617188 10.6016C0.995311 9.62357 1.52468 8.77153 2.20531 8.04552C2.88593 7.31954 3.70015 6.74984 4.64799 6.3364C5.59582 5.923 6.63439 5.71629 7.76373 5.71628C8.6208 5.71629 9.39974 5.84233 10.1005 6.0944C10.8013 6.3465 11.4794 6.75992 12.1349 7.33465V6.01878H15.9766V21.5067H12.1349V20.1909C11.4794 20.7656 10.8013 21.179 10.1005 21.4311C9.39974 21.6832 8.6208 21.8092 7.76373 21.8092C6.63439 21.8092 5.59582 21.6025 4.64799 21.1891C3.70015 20.7757 2.88593 20.206 2.20531 19.48C1.52468 18.754 0.995311 17.902 0.617188 16.9239C0.239065 15.9458 0.0500031 14.8921 0.0500031 13.7628ZM8.26286 18.1944C8.56535 18.1944 8.88297 18.1616 9.21573 18.0961C9.54847 18.0306 9.88374 17.9196 10.2215 17.7633C10.5593 17.607 10.8896 17.3978 11.2122 17.1356C11.5349 16.8735 11.8424 16.5508 12.1349 16.1676V11.3579C11.8424 10.9747 11.5349 10.6546 11.2122 10.3975C10.8896 10.1403 10.5593 9.93111 10.2215 9.76977C9.88374 9.60845 9.54847 9.49501 9.21573 9.42946C8.88297 9.36394 8.56535 9.33116 8.26286 9.33115C7.66794 9.33116 7.11083 9.44207 6.59155 9.6639C6.07225 9.88574 5.62103 10.1958 5.23787 10.5941C4.8547 10.9924 4.55472 11.4613 4.33793 12.0007C4.12113 12.5402 4.01274 13.1275 4.01274 13.7628C4.01274 14.398 4.12113 14.9854 4.33793 15.5248C4.55472 16.0643 4.8547 16.5332 5.23787 16.9314C5.62103 17.3297 6.07225 17.6398 6.59155 17.8616C7.11083 18.0835 7.66794 18.1944 8.26286 18.1944Z" fill="#77C159"/>
<path d="M25.5801 9.53967C23.7597 9.55299 22.1784 10.8215 22.1784 12.704V21.5067H18.3367V12.8099C18.3581 9.18338 21.4987 5.76514 25.5251 5.71628H25.6324C29.6588 5.76514 32.7994 9.18338 32.8208 12.8099V21.5067H28.9791V12.704C28.9791 10.8215 27.3978 9.55298 25.5773 9.53967" fill="#77C159"/>
<path d="M34.6395 13.7628C34.6395 12.6334 34.8286 11.5797 35.2067 10.6016C35.5848 9.62356 36.1142 8.77152 36.7948 8.04551C37.4754 7.31952 38.2897 6.74982 39.2375 6.33639C40.1853 5.92299 41.2239 5.71628 42.3532 5.71626C43.2103 5.71628 43.9918 5.84232 44.6976 6.09439C45.4034 6.34648 46.079 6.75486 46.7244 7.31951V1.3754H50.5661V21.5067H46.7244V20.206C46.079 20.7807 45.4034 21.1916 44.6976 21.4387C43.9918 21.6857 43.2103 21.8092 42.3532 21.8092C41.2239 21.8092 40.1853 21.6025 39.2375 21.1891C38.2897 20.7757 37.4754 20.206 36.7948 19.48C36.1142 18.754 35.5848 17.9019 35.2067 16.9239C34.8286 15.9458 34.6395 14.8921 34.6395 13.7628ZM42.8524 18.1944C43.1549 18.1944 43.4725 18.1616 43.8052 18.0961C44.138 18.0305 44.4732 17.9196 44.811 17.7633C45.1488 17.607 45.4791 17.3978 45.8017 17.1356C46.1244 16.8735 46.4319 16.5508 46.7244 16.1676V11.3579C46.4319 10.9747 46.1244 10.6546 45.8017 10.3974C45.4791 10.1403 45.1488 9.9311 44.811 9.76976C44.4732 9.60844 44.138 9.495 43.8052 9.42944C43.4725 9.36393 43.1549 9.33115 42.8524 9.33113C42.2574 9.33115 41.7003 9.44206 41.1811 9.66388C40.6618 9.88573 40.2105 10.1958 39.8274 10.5941C39.4442 10.9924 39.1442 11.4612 38.9274 12.0007C38.7106 12.5402 38.6022 13.1275 38.6023 13.7628C38.6022 14.398 38.7106 14.9854 38.9274 15.5248C39.1442 16.0643 39.4442 16.5331 39.8274 16.9314C40.2105 17.3297 40.6618 17.6398 41.1811 17.8616C41.7003 18.0835 42.2574 18.1944 42.8524 18.1944Z" fill="#77C159"/>
<path d="M68.5569 18.1944C69.1316 18.1944 69.6736 18.086 70.1828 17.8692C70.692 17.6524 71.1357 17.3474 71.5138 16.9541C71.8919 16.5609 72.1894 16.0945 72.4062 15.5551C72.623 15.0156 72.7314 14.4182 72.7314 13.7628C72.7314 13.1174 72.6205 12.525 72.3986 11.9856C72.1768 11.4461 71.8743 10.9798 71.4911 10.5865C71.108 10.1933 70.6643 9.88574 70.1601 9.6639C69.656 9.44207 69.1215 9.33116 68.5569 9.33115C67.9821 9.33116 67.4402 9.44207 66.931 9.6639C66.4217 9.88574 65.9781 10.1933 65.6 10.5865C65.2218 10.9798 64.9219 11.4461 64.7 11.9856C64.4782 12.525 64.3673 13.1174 64.3673 13.7628C64.3673 14.4182 64.4757 15.0156 64.6925 15.5551C64.9093 16.0945 65.2067 16.5609 65.5848 16.9541C65.963 17.3474 66.4066 17.6524 66.9158 17.8692C67.425 18.086 67.9721 18.1944 68.5569 18.1944ZM68.5569 21.8092C67.4376 21.8092 66.3839 21.6076 65.3958 21.2042C64.4076 20.8009 63.543 20.2388 62.8018 19.5178C62.0607 18.7969 61.4759 17.9448 61.0473 16.9617C60.6188 15.9786 60.4045 14.9123 60.4045 13.7628C60.4045 12.6435 60.6188 11.5949 61.0473 10.6168C61.4759 9.6387 62.0582 8.78666 62.7943 8.06065C63.5304 7.33466 64.395 6.76244 65.3882 6.34397C66.3814 5.92552 67.4376 5.71629 68.5569 5.71628C69.6761 5.71629 70.7298 5.92552 71.718 6.34397C72.7062 6.76244 73.5683 7.33466 74.3044 8.06065C75.0405 8.78666 75.6228 9.6387 76.0513 10.6168C76.4798 11.5949 76.6941 12.6435 76.6941 13.7628C76.6941 14.9123 76.4798 15.9786 76.0513 16.9617C75.6228 17.9448 75.0379 18.7969 74.2968 19.5178C73.5557 20.2388 72.6936 20.8009 71.7105 21.2042C70.7273 21.6076 69.6761 21.8092 68.5569 21.8092Z" fill="#77C159"/>
<path d="M80.3364 4.806C80.0251 4.80601 79.7309 4.74521 79.4537 4.62362C79.1764 4.50205 78.9333 4.3367 78.7242 4.12756C78.515 3.91845 78.3497 3.67529 78.2281 3.39806C78.1065 3.12088 78.0457 2.82664 78.0457 2.51537C78.0457 2.20413 78.1065 1.90747 78.2281 1.62537C78.3497 1.34332 78.515 1.09773 78.7242 0.888579C78.9333 0.679476 79.1764 0.514126 79.4537 0.392523C79.7309 0.270958 80.0251 0.210167 80.3364 0.210144C80.6476 0.210167 80.9443 0.270934 81.2263 0.392523C81.5084 0.514126 81.754 0.679476 81.9631 0.888579C82.1723 1.09773 82.3376 1.34332 82.4592 1.62537C82.5808 1.90747 82.6416 2.20413 82.6416 2.51537C82.6416 2.82664 82.5808 3.12088 82.4592 3.39806C82.3376 3.67529 82.1723 3.91845 81.9631 4.12756C81.754 4.3367 81.5084 4.50205 81.2263 4.62362C80.9443 4.74522 80.6476 4.80601 80.3364 4.806Z" fill="#77C159"/>
<path d="M78.4152 6.01877H82.257V21.5067H78.4152V6.01877Z" fill="#77C159"/>
<path d="M84.0234 13.7628C84.0234 12.6334 84.2125 11.5797 84.5906 10.6016C84.9687 9.62356 85.4981 8.77152 86.1787 8.04551C86.8593 7.31952 87.6736 6.74982 88.6214 6.33639C89.5692 5.92299 90.6078 5.71628 91.7371 5.71626C92.5942 5.71628 93.3757 5.84232 94.0815 6.09439C94.7873 6.34648 95.4629 6.75486 96.1083 7.31951V1.3754H99.95V21.5067H96.1083V20.206C95.4629 20.7807 94.7873 21.1916 94.0815 21.4387C93.3757 21.6857 92.5942 21.8092 91.7371 21.8092C90.6078 21.8092 89.5692 21.6025 88.6214 21.1891C87.6736 20.7757 86.8593 20.206 86.1787 19.48C85.4981 18.754 84.9687 17.9019 84.5906 16.9239C84.2125 15.9458 84.0234 14.8921 84.0234 13.7628ZM92.2363 18.1944C92.5388 18.1944 92.8564 18.1616 93.1891 18.0961C93.5219 18.0305 93.8571 17.9196 94.1949 17.7633C94.5327 17.607 94.863 17.3978 95.1856 17.1356C95.5083 16.8735 95.8158 16.5508 96.1083 16.1676V11.3579C95.8158 10.9747 95.5083 10.6546 95.1856 10.3974C94.863 10.1403 94.5327 9.9311 94.1949 9.76976C93.8571 9.60844 93.5219 9.495 93.1891 9.42944C92.8564 9.36393 92.5388 9.33115 92.2363 9.33113C91.6413 9.33115 91.0842 9.44206 90.565 9.66388C90.0457 9.88573 89.5944 10.1958 89.2113 10.5941C88.8281 10.9924 88.5281 11.4612 88.3113 12.0007C88.0945 12.5402 87.9861 13.1275 87.9862 13.7628C87.9861 14.398 88.0945 14.9854 88.3113 15.5248C88.5281 16.0643 88.8281 16.5331 89.2113 16.9314C89.5944 17.3297 90.0457 17.6398 90.565 17.8616C91.0842 18.0835 91.6413 18.1944 92.2363 18.1944Z" fill="#77C159"/>
<path d="M60.0385 9.49325C57.4639 9.49325 56.3286 10.8215 56.3286 12.704V21.5067H52.4868V12.8099C52.5083 9.18338 54.6031 5.61816 60.0385 5.61816" fill="#77C159"/>
</svg>
