<svg width="100" height="28" viewBox="0 0 100 28" fill="none" xmlns="http://www.w3.org/2000/svg">
<path fill-rule="evenodd" clip-rule="evenodd" d="M29.4141 20.5039V8.19922H30.9961L38.5156 18.1016V8.19922H40.0195V20.5039H38.4375L30.918 10.5039V20.5039H29.4141Z" fill="#B52E31"/>
<path fill-rule="evenodd" clip-rule="evenodd" d="M52.2656 20.0156C51.2695 20.3867 50.1953 20.582 49.0625 20.582C44.6094 20.582 42.3828 18.4531 42.3828 14.1758C42.3828 10.1328 44.5313 8.10156 48.8281 8.10156C50.0586 8.10156 51.2109 8.27734 52.2656 8.60937V9.97656C51.2109 9.56641 50.1172 9.37109 49.0039 9.37109C45.6445 9.37109 43.9648 10.9727 43.9648 14.1367C43.9648 17.5547 45.625 19.2539 48.9258 19.2539C49.4531 19.2539 50.0391 19.1758 50.6836 19.0391V14.918H52.2656V20.0156Z" fill="#B52E31"/>
<path fill-rule="evenodd" clip-rule="evenodd" d="M54.8047 15.7578V8.19922H56.3867V15.7578C56.3867 18.1211 57.5586 19.3125 59.9219 19.3125C62.2656 19.3125 63.457 18.1211 63.457 15.7578V8.19922H65.0391V15.7578C65.0391 18.9805 63.3398 20.6016 59.9219 20.6016C56.5039 20.6016 54.8047 18.9805 54.8047 15.7578Z" fill="#B52E31"/>
<path fill-rule="evenodd" clip-rule="evenodd" d="M69.4531 8.19922V19.2148H75.8984V20.5039H67.8711V8.19922H69.4531Z" fill="#B52E31"/>
<path fill-rule="evenodd" clip-rule="evenodd" d="M78.1836 20.5039H76.5234L82.6367 6.57812L88.75 20.5039H86.9922L85.4102 16.6367H81.3477L81.7773 15.3477H84.8828L82.5781 9.78125L78.1836 20.5039Z" fill="#B52E31"/>
<path fill-rule="evenodd" clip-rule="evenodd" d="M90.4492 20.5039V8.19922H95.7031C98.0469 8.19922 99.2187 9.17578 99.2187 11.1484C99.2187 12.75 98.0664 13.9414 95.7812 14.7031L100 20.5039H97.9102L94.0039 14.9766V13.9414C96.3477 13.5703 97.5391 12.6719 97.5391 11.2266C97.5391 10.0937 96.8945 9.52734 95.5859 9.52734H92.0703V20.5039H90.4492Z" fill="#B52E31"/>
<path fill-rule="evenodd" clip-rule="evenodd" d="M0 4.91797L12.5977 0.425781L25.5273 4.83984L23.4375 21.5L12.5977 27.4961L1.93359 21.5781L0 4.91797Z" fill="#E23237"/>
<path fill-rule="evenodd" clip-rule="evenodd" d="M25.5273 4.83984L12.5977 0.425781V27.4961L23.4375 21.5L25.5273 4.83984Z" fill="#B52E31"/>
<path fill-rule="evenodd" clip-rule="evenodd" d="M12.6172 3.58984L4.76562 21.0508L7.69531 20.9922L9.27734 17.0469H12.6172H16.2891L18.0078 21.0313L20.8008 21.0898L12.6172 3.58984ZM12.6367 9.19531L15.293 14.7422H12.7539H12.6172H10.3125L12.6367 9.19531Z" fill="white"/>
</svg>
