<svg width="100" height="34" viewBox="0 0 100 34" fill="none" xmlns="http://www.w3.org/2000/svg">
<path d="M96.8852 20.6469L99.6593 22.4963C98.7589 23.8225 96.6054 26.0977 92.8823 26.0977C88.2588 26.0977 84.8156 22.5206 84.8156 17.9702C84.8156 13.1277 88.2953 9.84259 92.4929 9.84259C96.7149 9.84259 98.7833 13.2007 99.4525 15.0136L99.8175 15.9383L88.9402 20.4401C89.7675 22.0704 91.0572 22.8978 92.8823 22.8978C94.7073 22.8978 95.9727 21.9974 96.8852 20.6469ZM88.3562 17.7146L95.6199 14.6972C95.2183 13.6874 94.026 12.9695 92.6024 12.9695C90.7896 12.9695 88.271 14.5756 88.3562 17.7146Z" fill="#FF302F"/>
<path d="M79.5716 1.55685H83.0757V25.3555H79.5716V1.55685Z" fill="#20B15A"/>
<path d="M74.0478 10.4753H77.4302V24.9297C77.4302 30.928 73.8896 33.3979 69.7041 33.3979C65.762 33.3979 63.3895 30.7455 62.5013 28.5919L65.6039 27.3022C66.1635 28.6284 67.5141 30.198 69.7041 30.198C72.393 30.198 74.0478 28.5311 74.0478 25.4164V24.2483H73.9261C73.1231 25.2217 71.59 26.0977 69.6433 26.0977C65.5795 26.0977 61.8564 22.5571 61.8564 17.9945C61.8564 13.4075 65.5795 9.83041 69.6433 9.83041C71.5779 9.83041 73.1231 10.6943 73.9261 11.6433H74.0478V10.4753ZM74.2911 17.9945C74.2911 15.1231 72.3809 13.0303 69.9475 13.0303C67.4897 13.0303 65.4214 15.1231 65.4214 17.9945C65.4214 20.8294 67.4897 22.8856 69.9475 22.8856C72.3809 22.8978 74.2911 20.8294 74.2911 17.9945Z" fill="#3686F7"/>
<path d="M42.6204 17.9336C42.6204 22.6179 38.9703 26.0612 34.4928 26.0612C30.0153 26.0612 26.3652 22.6058 26.3652 17.9336C26.3652 13.225 30.0153 9.79391 34.4928 9.79391C38.9703 9.79391 42.6204 13.225 42.6204 17.9336ZM39.0676 17.9336C39.0676 15.0136 36.9505 13.006 34.4928 13.006C32.0351 13.006 29.918 15.0136 29.918 17.9336C29.918 20.8294 32.0351 22.8613 34.4928 22.8613C36.9505 22.8613 39.0676 20.8294 39.0676 17.9336Z" fill="#FF302F"/>
<path d="M60.372 17.9702C60.372 22.6545 56.7219 26.0977 52.2445 26.0977C47.767 26.0977 44.1169 22.6545 44.1169 17.9702C44.1169 13.2615 47.767 9.84259 52.2445 9.84259C56.7219 9.84259 60.372 13.2494 60.372 17.9702ZM56.8071 17.9702C56.8071 15.0501 54.69 13.0425 52.2323 13.0425C49.7746 13.0425 47.6575 15.0501 47.6575 17.9702C47.6575 20.8659 49.7746 22.8978 52.2323 22.8978C54.7022 22.8978 56.8071 20.8537 56.8071 17.9702Z" fill="#FFBA40"/>
<path d="M13.0059 22.5328C7.90788 22.5328 3.9171 18.4203 3.9171 13.3223C3.9171 8.22437 7.90788 4.11192 13.0059 4.11192C15.7556 4.11192 17.7632 5.19478 19.2475 6.58182L21.6931 4.13625C19.6247 2.15303 16.8628 0.644318 13.0059 0.644318C6.02199 0.644318 0.145325 6.33848 0.145325 13.3223C0.145325 20.3062 6.02199 26.0004 13.0059 26.0004C16.7776 26.0004 19.6247 24.7593 21.8513 22.4476C24.1387 20.1602 24.8444 16.9481 24.8444 14.3444C24.8444 13.5292 24.747 12.6897 24.6375 12.0691H13.0059V15.4516H21.2916C21.0483 17.5686 20.3791 19.0165 19.3935 20.002C18.2012 21.2066 16.3153 22.5328 13.0059 22.5328Z" fill="#3686F7"/>
</svg>
